<?xml version="1.0" encoding="UTF-8" standalone="no"?>
<!-- Created with Inkscape (http://www.inkscape.org/) -->

<svg
   width="1242.1414"
   height="1123.8171"
   id="svg2"
   version="1.1"
   inkscape:version="1.1.2 (0a00cf5339, 2022-02-04)"
   sodipodi:docname="controls.svg"
   xmlns:inkscape="http://www.inkscape.org/namespaces/inkscape"
   xmlns:sodipodi="http://sodipodi.sourceforge.net/DTD/sodipodi-0.dtd"
   xmlns:xlink="http://www.w3.org/1999/xlink"
   xmlns="http://www.w3.org/2000/svg"
   xmlns:svg="http://www.w3.org/2000/svg"
   xmlns:rdf="http://www.w3.org/1999/02/22-rdf-syntax-ns#"
   xmlns:cc="http://creativecommons.org/ns#"
   xmlns:dc="http://purl.org/dc/elements/1.1/">
  <defs
     id="defs4">
    <marker
       style="overflow:visible"
       id="marker67433"
       refX="0"
       refY="0"
       orient="auto"
       inkscape:stockid="Arrow1Mstart"
       inkscape:isstock="true">
      <path
         transform="matrix(0.4,0,0,0.4,4,0)"
         style="fill:context-stroke;fill-rule:evenodd;stroke:context-stroke;stroke-width:1pt"
         d="M 0,0 5,-5 -12.5,0 5,5 Z"
         id="path67431" />
    </marker>
    <marker
       style="overflow:visible"
       id="Arrow1Mstart"
       refX="0"
       refY="0"
       orient="auto"
       inkscape:stockid="Arrow1Mstart"
       inkscape:isstock="true">
      <path
         transform="matrix(0.4,0,0,0.4,4,0)"
         style="fill:context-stroke;fill-rule:evenodd;stroke:context-stroke;stroke-width:1pt"
         d="M 0,0 5,-5 -12.5,0 5,5 Z"
         id="path18609" />
    </marker>
    <marker
       style="overflow:visible"
       id="marker67415"
       refX="0"
       refY="0"
       orient="auto"
       inkscape:stockid="Arrow2Mend"
       inkscape:isstock="true">
      <path
         transform="scale(-0.6)"
         d="M 8.7185878,4.0337352 -2.2072895,0.01601326 8.7185884,-4.0017078 c -1.7454984,2.3720609 -1.7354408,5.6174519 -6e-7,8.035443 z"
         style="fill:context-stroke;fill-rule:evenodd;stroke:context-stroke;stroke-width:0.625;stroke-linejoin:round"
         id="path67413" />
    </marker>
    <marker
       style="overflow:visible"
       id="DotS"
       refX="0"
       refY="0"
       orient="auto"
       inkscape:stockid="DotS"
       inkscape:isstock="true">
      <path
         transform="matrix(0.2,0,0,0.2,1.48,0.2)"
         style="fill:context-stroke;fill-rule:evenodd;stroke:context-stroke;stroke-width:1pt"
         d="m -2.5,-1 c 0,2.76 -2.24,5 -5,5 -2.76,0 -5,-2.24 -5,-5 0,-2.76 2.24,-5 5,-5 2.76,0 5,2.24 5,5 z"
         id="path18670" />
    </marker>
    <marker
       style="overflow:visible"
       id="Arrow2Send"
       refX="0"
       refY="0"
       orient="auto"
       inkscape:stockid="Arrow2Send"
       inkscape:isstock="true">
      <path
         transform="matrix(-0.3,0,0,-0.3,0.69,0)"
         d="M 8.7185878,4.0337352 -2.2072895,0.01601326 8.7185884,-4.0017078 c -1.7454984,2.3720609 -1.7354408,5.6174519 -6e-7,8.035443 z"
         style="fill:context-stroke;fill-rule:evenodd;stroke:context-stroke;stroke-width:0.625;stroke-linejoin:round"
         id="path18636" />
    </marker>
    <marker
       style="overflow:visible"
       id="Arrow2Mend"
       refX="0"
       refY="0"
       orient="auto"
       inkscape:stockid="Arrow2Mend"
       inkscape:isstock="true">
      <path
         transform="scale(-0.6)"
         d="M 8.7185878,4.0337352 -2.2072895,0.01601326 8.7185884,-4.0017078 c -1.7454984,2.3720609 -1.7354408,5.6174519 -6e-7,8.035443 z"
         style="fill:context-stroke;fill-rule:evenodd;stroke:context-stroke;stroke-width:0.625;stroke-linejoin:round"
         id="path18630" />
    </marker>
    <marker
       style="overflow:visible"
       id="Arrow1Mend"
       refX="0"
       refY="0"
       orient="auto"
       inkscape:stockid="Arrow1Mend"
       inkscape:isstock="true">
      <path
         transform="matrix(-0.4,0,0,-0.4,-4,0)"
         style="fill:context-stroke;fill-rule:evenodd;stroke:context-stroke;stroke-width:1pt"
         d="M 0,0 5,-5 -12.5,0 5,5 Z"
         id="path18612" />
    </marker>
    <radialGradient
       r="19.487921"
       id="radialGradient4186"
       gradientUnits="userSpaceOnUse"
       gradientTransform="matrix(1,0,0,0.48969,0,44.31162)"
       cy="81.508713"
       cx="581.13416">
      <stop
         id="stop3039"
         stop-color="#b1b2b1"
         offset="0" />
      <stop
         id="stop3041"
         stop-opacity=".96947"
         stop-color="#8d8e8d"
         offset="1" />
    </radialGradient>
    <radialGradient
       r="181.40927"
       id="radialGradient4184"
       gradientUnits="userSpaceOnUse"
       gradientTransform="matrix(1.49869,0.01912,-0.01653,1.29593,-162.84986,-72.84225)"
       cy="212.40048"
       cx="333.4599">
      <stop
         id="stop3028"
         stop-color="#346bfb"
         offset="0" />
      <stop
         id="stop3030"
         stop-color="#2d54cc"
         offset=".17996" />
      <stop
         id="stop3032"
         stop-color="#233fa2"
         offset=".39709" />
      <stop
         id="stop3034"
         stop-color="#1e2156"
         offset=".80044" />
      <stop
         id="stop3036"
         stop-color="#323642"
         offset="1" />
    </radialGradient>
    <radialGradient
       r="157.83401"
       id="radialGradient4182"
       gradientUnits="userSpaceOnUse"
       gradientTransform="matrix(0.73682,3.1217545e-4,-2.5192717e-4,0.59462,57.67873,109.48168)"
       cy="333.36819"
       cx="218.84474">
      <stop
         id="stop3023"
         stop-color="#1a1a1a"
         offset="0" />
      <stop
         id="stop3025"
         stop-color="#222220"
         offset="1" />
    </radialGradient>
    <linearGradient
       y2="100.35659"
       y1="85.185608"
       x2="77.540154"
       x1="90.525909"
       id="linearGradient4180"
       gradientUnits="userSpaceOnUse">
      <stop
         id="stop3018"
         offset="0" />
      <stop
         id="stop3020"
         stop-color="#464646"
         offset="1" />
    </linearGradient>
    <filter
       id="filter4060"
       color-interpolation-filters="sRGB"
       x="0"
       y="0"
       width="1"
       height="1" />
    <filter
       id="filter4112"
       color-interpolation-filters="sRGB"
       x="-0.097839765"
       y="-0.043266706"
       width="1.1956795"
       height="1.0865334">
      <feGaussianBlur
         id="feGaussianBlur3014"
         stdDeviation="1.75771" />
    </filter>
    <filter
       id="filter4034"
       color-interpolation-filters="sRGB"
       x="-0.016023129"
       y="-0.046902528"
       width="1.0335407"
       height="1.0895075">
      <feGaussianBlur
         id="feGaussianBlur3011"
         stdDeviation=".83809" />
    </filter>
    <filter
       id="filter4030"
       color-interpolation-filters="sRGB"
       x="-0.0042626789"
       y="-0.020225954"
       width="1.0113778"
       height="1.0404948">
      <feGaussianBlur
         id="feGaussianBlur3008"
         stdDeviation=".27451" />
    </filter>
    <filter
       id="filter3983"
       color-interpolation-filters="sRGB"
       x="-0.012082686"
       y="-0.012517205"
       width="1.0245225"
       height="1.0247657">
      <feGaussianBlur
         id="feGaussianBlur3005"
         stdDeviation=".97782" />
    </filter>
    <filter
       id="filter3966"
       color-interpolation-filters="sRGB"
       x="-0.048055022"
       y="-0.034897169"
       width="1.0995868"
       height="1.0655367">
      <feGaussianBlur
         id="feGaussianBlur3002"
         stdDeviation="1.16159" />
    </filter>
    <filter
       id="filter3954"
       color-interpolation-filters="sRGB"
       x="-0.016567061"
       y="-0.069961222"
       width="1.0331341"
       height="1.1399224">
      <feGaussianBlur
         id="feGaussianBlur2999"
         stdDeviation=".21654" />
    </filter>
    <filter
       id="filter3898"
       color-interpolation-filters="sRGB"
       x="-0.010115357"
       y="-0.014739458"
       width="1.0202311"
       height="1.0294789">
      <feGaussianBlur
         id="feGaussianBlur2996"
         stdDeviation=".64028" />
    </filter>
    <filter
       id="filter3865"
       color-interpolation-filters="sRGB"
       x="-0.022103999"
       y="-0.031481019"
       width="1.0442087"
       height="1.062962">
      <feGaussianBlur
         id="feGaussianBlur2993"
         stdDeviation="2.56114" />
    </filter>
    <clipPath
       id="clipPath4116">
      <path
         id="path2990"
         d="m 108.32529,-72.38795 c -10.05324,14.95097 -10.97375,33.73238 -6.21875,50.5 2.69334,9.49756 11.34109,20.58705 19.3125,30.0625 7.97141,9.47545 15.375,16.9375 15.375,16.9375 l 5.65625,-5.65625 c 0,0 -7.17332,-7.24553 -14.90625,-16.4375 -7.73293,-9.19197 -15.93945,-20.70918 -17.75,-27.09375 -4.25277,-14.99663 -3.2489,-31.29731 5.1875,-43.84375 z"
         inkscape:connector-curvature="0" />
    </clipPath>
    <linearGradient
       inkscape:collect="always"
       xlink:href="#radialGradient4186"
       id="linearGradient3945"
       x1="55.933475"
       y1="199.40192"
       x2="417.75201"
       y2="199.40192"
       gradientUnits="userSpaceOnUse" />
    <radialGradient
       inkscape:collect="always"
       xlink:href="#radialGradient4186"
       id="radialGradient5411"
       gradientUnits="userSpaceOnUse"
       gradientTransform="matrix(1,0,0,0.48969,0,44.31162)"
       cx="581.13416"
       cy="81.508713"
       r="19.487921" />
    <marker
       style="overflow:visible"
       id="DotS-9"
       refX="0"
       refY="0"
       orient="auto"
       inkscape:stockid="DotS"
       inkscape:isstock="true">
      <path
         transform="matrix(0.2,0,0,0.2,1.48,0.2)"
         style="fill:context-stroke;fill-rule:evenodd;stroke:context-stroke;stroke-width:1pt"
         d="m -2.5,-1 c 0,2.76 -2.24,5 -5,5 -2.76,0 -5,-2.24 -5,-5 0,-2.76 2.24,-5 5,-5 2.76,0 5,2.24 5,5 z"
         id="path18670-1" />
    </marker>
    <marker
       style="overflow:visible"
       id="DotS-9-7"
       refX="0"
       refY="0"
       orient="auto"
       inkscape:stockid="DotS"
       inkscape:isstock="true">
      <path
         transform="matrix(0.2,0,0,0.2,1.48,0.2)"
         style="fill:context-stroke;fill-rule:evenodd;stroke:context-stroke;stroke-width:1pt"
         d="m -2.5,-1 c 0,2.76 -2.24,5 -5,5 -2.76,0 -5,-2.24 -5,-5 0,-2.76 2.24,-5 5,-5 2.76,0 5,2.24 5,5 z"
         id="path18670-1-0" />
    </marker>
    <marker
       style="overflow:visible"
       id="marker67415-0"
       refX="0"
       refY="0"
       orient="auto"
       inkscape:stockid="Arrow2Mend"
       inkscape:isstock="true">
      <path
         transform="scale(-0.6)"
         d="M 8.7185878,4.0337352 -2.2072895,0.01601326 8.7185884,-4.0017078 c -1.7454984,2.3720609 -1.7354408,5.6174519 -6e-7,8.035443 z"
         style="fill:context-stroke;fill-rule:evenodd;stroke:context-stroke;stroke-width:0.625;stroke-linejoin:round"
         id="path67413-6" />
    </marker>
    <radialGradient
       inkscape:collect="always"
       xlink:href="#radialGradient4186"
       id="radialGradient70011"
       cx="-369.93188"
       cy="-74.583565"
       fx="-369.93188"
       fy="-74.583565"
       r="35.208916"
       gradientTransform="matrix(0.56391247,0,0,0.63697682,103.31222,181.71229)"
       gradientUnits="userSpaceOnUse" />
    <marker
       style="overflow:visible"
       id="marker67415-6"
       refX="0"
       refY="0"
       orient="auto"
       inkscape:stockid="Arrow2Mend"
       inkscape:isstock="true">
      <path
         transform="scale(-0.6)"
         d="M 8.7185878,4.0337352 -2.2072895,0.01601326 8.7185884,-4.0017078 c -1.7454984,2.3720609 -1.7354408,5.6174519 -6e-7,8.035443 z"
         style="fill:context-stroke;fill-rule:evenodd;stroke:context-stroke;stroke-width:0.625;stroke-linejoin:round"
         id="path67413-1" />
    </marker>
    <marker
       style="overflow:visible"
       id="marker67415-0-8"
       refX="0"
       refY="0"
       orient="auto"
       inkscape:stockid="Arrow2Mend"
       inkscape:isstock="true">
      <path
         transform="scale(-0.6)"
         d="M 8.7185878,4.0337352 -2.2072895,0.01601326 8.7185884,-4.0017078 c -1.7454984,2.3720609 -1.7354408,5.6174519 -6e-7,8.035443 z"
         style="fill:context-stroke;fill-rule:evenodd;stroke:context-stroke;stroke-width:0.625;stroke-linejoin:round"
         id="path67413-6-7" />
    </marker>
    <radialGradient
       inkscape:collect="always"
       xlink:href="#radialGradient4186-2"
       id="radialGradient70011-9"
       cx="-369.93188"
       cy="-74.583565"
       fx="-369.93188"
       fy="-74.583565"
       r="35.208916"
       gradientTransform="matrix(0.56391247,0,0,0.63697682,474.79116,5.994421)"
       gradientUnits="userSpaceOnUse" />
    <radialGradient
       r="19.487921"
       id="radialGradient4186-2"
       gradientUnits="userSpaceOnUse"
       gradientTransform="matrix(1,0,0,0.48969,0,44.31162)"
       cy="81.508713"
       cx="581.13416">
      <stop
         id="stop3039-0"
         stop-color="#b1b2b1"
         offset="0" />
      <stop
         id="stop3041-2"
         stop-opacity=".96947"
         stop-color="#8d8e8d"
         offset="1" />
    </radialGradient>
    <marker
       style="overflow:visible"
       id="marker67415-2"
       refX="0"
       refY="0"
       orient="auto"
       inkscape:stockid="Arrow2Mend"
       inkscape:isstock="true">
      <path
         transform="scale(-0.6)"
         d="M 8.7185878,4.0337352 -2.2072895,0.01601326 8.7185884,-4.0017078 c -1.7454984,2.3720609 -1.7354408,5.6174519 -6e-7,8.035443 z"
         style="fill:context-stroke;fill-rule:evenodd;stroke:context-stroke;stroke-width:0.625;stroke-linejoin:round"
         id="path67413-8" />
    </marker>
    <marker
       style="overflow:visible"
       id="marker67415-7"
       refX="0"
       refY="0"
       orient="auto"
       inkscape:stockid="Arrow2Mend"
       inkscape:isstock="true">
      <path
         transform="scale(-0.6)"
         d="M 8.7185878,4.0337352 -2.2072895,0.01601326 8.7185884,-4.0017078 c -1.7454984,2.3720609 -1.7354408,5.6174519 -6e-7,8.035443 z"
         style="fill:context-stroke;fill-rule:evenodd;stroke:context-stroke;stroke-width:0.625;stroke-linejoin:round"
         id="path67413-3" />
    </marker>
    <marker
       style="overflow:visible"
       id="marker67415-1"
       refX="0"
       refY="0"
       orient="auto"
       inkscape:stockid="Arrow2Mend"
       inkscape:isstock="true">
      <path
         transform="scale(-0.6)"
         d="M 8.7185878,4.0337352 -2.2072895,0.01601326 8.7185884,-4.0017078 c -1.7454984,2.3720609 -1.7354408,5.6174519 -6e-7,8.035443 z"
         style="fill:context-stroke;fill-rule:evenodd;stroke:context-stroke;stroke-width:0.625;stroke-linejoin:round"
         id="path67413-2" />
    </marker>
    <marker
       style="overflow:visible"
       id="marker67415-7-9"
       refX="0"
       refY="0"
       orient="auto"
       inkscape:stockid="Arrow2Mend"
       inkscape:isstock="true">
      <path
         transform="scale(-0.6)"
         d="M 8.7185878,4.0337352 -2.2072895,0.01601326 8.7185884,-4.0017078 c -1.7454984,2.3720609 -1.7354408,5.6174519 -6e-7,8.035443 z"
         style="fill:context-stroke;fill-rule:evenodd;stroke:context-stroke;stroke-width:0.625;stroke-linejoin:round"
         id="path67413-3-3" />
    </marker>
    <radialGradient
       r="19.487921"
       id="radialGradient4186-2-8"
       gradientUnits="userSpaceOnUse"
       gradientTransform="matrix(1,0,0,0.48969,0,44.31162)"
       cy="81.508713"
       cx="581.13416">
      <stop
         id="stop3039-0-4"
         stop-color="#b1b2b1"
         offset="0" />
      <stop
         id="stop3041-2-5"
         stop-opacity=".96947"
         stop-color="#8d8e8d"
         offset="1" />
    </radialGradient>
    <marker
       style="overflow:visible"
       id="marker67415-03"
       refX="0"
       refY="0"
       orient="auto"
       inkscape:stockid="Arrow2Mend"
       inkscape:isstock="true">
      <path
         transform="scale(-0.6)"
         d="M 8.7185878,4.0337352 -2.2072895,0.01601326 8.7185884,-4.0017078 c -1.7454984,2.3720609 -1.7354408,5.6174519 -6e-7,8.035443 z"
         style="fill:context-stroke;fill-rule:evenodd;stroke:context-stroke;stroke-width:0.625;stroke-linejoin:round"
         id="path67413-61" />
    </marker>
    <marker
       style="overflow:visible"
       id="marker67415-7-0"
       refX="0"
       refY="0"
       orient="auto"
       inkscape:stockid="Arrow2Mend"
       inkscape:isstock="true">
      <path
         transform="scale(-0.6)"
         d="M 8.7185878,4.0337352 -2.2072895,0.01601326 8.7185884,-4.0017078 c -1.7454984,2.3720609 -1.7354408,5.6174519 -6e-7,8.035443 z"
         style="fill:context-stroke;fill-rule:evenodd;stroke:context-stroke;stroke-width:0.625;stroke-linejoin:round"
         id="path67413-3-6" />
    </marker>
    <marker
       style="overflow:visible"
       id="marker67415-1-3"
       refX="0"
       refY="0"
       orient="auto"
       inkscape:stockid="Arrow2Mend"
       inkscape:isstock="true">
      <path
         transform="scale(-0.6)"
         d="M 8.7185878,4.0337352 -2.2072895,0.01601326 8.7185884,-4.0017078 c -1.7454984,2.3720609 -1.7354408,5.6174519 -6e-7,8.035443 z"
         style="fill:context-stroke;fill-rule:evenodd;stroke:context-stroke;stroke-width:0.625;stroke-linejoin:round"
         id="path67413-2-2" />
    </marker>
    <marker
       style="overflow:visible"
       id="marker67415-7-9-0"
       refX="0"
       refY="0"
       orient="auto"
       inkscape:stockid="Arrow2Mend"
       inkscape:isstock="true">
      <path
         transform="scale(-0.6)"
         d="M 8.7185878,4.0337352 -2.2072895,0.01601326 8.7185884,-4.0017078 c -1.7454984,2.3720609 -1.7354408,5.6174519 -6e-7,8.035443 z"
         style="fill:context-stroke;fill-rule:evenodd;stroke:context-stroke;stroke-width:0.625;stroke-linejoin:round"
         id="path67413-3-3-6" />
    </marker>
    <radialGradient
       inkscape:collect="always"
       xlink:href="#radialGradient4186-2-5"
       id="radialGradient70011-9-74"
       cx="-369.93188"
       cy="-74.583565"
       fx="-369.93188"
       fy="-74.583565"
       r="35.208916"
       gradientTransform="matrix(0.56391247,0,0,0.63697682,175.02576,-72.294069)"
       gradientUnits="userSpaceOnUse" />
    <radialGradient
       r="19.487921"
       id="radialGradient4186-2-5"
       gradientUnits="userSpaceOnUse"
       gradientTransform="matrix(1,0,0,0.48969,0,44.31162)"
       cy="81.508713"
       cx="581.13416">
      <stop
         id="stop3039-0-2"
         stop-color="#b1b2b1"
         offset="0" />
      <stop
         id="stop3041-2-54"
         stop-opacity=".96947"
         stop-color="#8d8e8d"
         offset="1" />
    </radialGradient>
    <radialGradient
       inkscape:collect="always"
       xlink:href="#radialGradient4186-2-5-4"
       id="radialGradient70011-9-74-4"
       cx="-369.93188"
       cy="-74.583565"
       fx="-369.93188"
       fy="-74.583565"
       r="35.208916"
       gradientTransform="matrix(0.56391247,0,0,0.63697682,282.43734,-69.71903)"
       gradientUnits="userSpaceOnUse" />
    <radialGradient
       r="19.487921"
       id="radialGradient4186-2-5-4"
       gradientUnits="userSpaceOnUse"
       gradientTransform="matrix(1,0,0,0.48969,0,44.31162)"
       cy="81.508713"
       cx="581.13416">
      <stop
         id="stop3039-0-2-3"
         stop-color="#b1b2b1"
         offset="0" />
      <stop
         id="stop3041-2-54-0"
         stop-opacity=".96947"
         stop-color="#8d8e8d"
         offset="1" />
    </radialGradient>
  </defs>
  <sodipodi:namedview
     id="base"
     pagecolor="#000000"
     bordercolor="#666666"
     borderopacity="1.0"
     inkscape:pageopacity="0"
     inkscape:pageshadow="2"
     inkscape:zoom="0.49497475"
     inkscape:cx="208.09142"
     inkscape:cy="803.07127"
     inkscape:document-units="px"
     inkscape:current-layer="g3043"
     showgrid="false"
     fit-margin-top="0"
     fit-margin-left="0"
     fit-margin-right="0"
     fit-margin-bottom="0"
     inkscape:window-width="2490"
     inkscape:window-height="1376"
     inkscape:window-x="70"
     inkscape:window-y="27"
     inkscape:window-maximized="1"
     inkscape:pagecheckerboard="false"
     showguides="true"
     inkscape:guide-bbox="true" />
  <metadata
     id="metadata7">
    <rdf:RDF>
      <cc:Work
         rdf:about="">
        <dc:format>image/svg+xml</dc:format>
        <dc:type
           rdf:resource="http://purl.org/dc/dcmitype/StillImage" />
      </cc:Work>
    </rdf:RDF>
  </metadata>
  <g
     inkscape:label="Layer 1"
     inkscape:groupmode="layer"
     id="layer1"
     transform="translate(471.37913,269.39646)">
    <g
       id="g3043"
       transform="matrix(2.1007133,0,0,1.8433059,-110.48381,170.95279)">
      <path
         id="path3053"
         d="m 108.28076,113.90361 -54.30799,26.1483 c 0,0 -2.01141,11.06274 1.67617,17.76743 3.68758,6.70469 38.88721,35.53486 49.61471,44.25096 10.7275,8.7161 47.60331,35.19963 58.33082,48.60901 10.72751,13.40938 17.43219,19.44361 26.14829,35.53486 8.7161,16.09125 32.18252,39.89292 51.29089,47.60331 19.10837,7.71039 53.12565,17.23582 78.44489,16.09126 14.41594,-0.65168 35.95357,-6.73563 35.95357,-6.73563 l 13.66114,-91.15286 z"
         inkscape:connector-curvature="0"
         style="fill:url(#radialGradient4182)" />
      <path
         id="path3055"
         d="m 184.71424,57.90803 c 0.32982,0.01086 73.42293,10.5438 98.8942,28.84158 35.56871,25.55147 48.97103,29.41243 68.72309,49.61471 24.94103,25.50952 53.99885,60.90653 60.67745,88.16669 7.68424,31.36492 4.66719,31.95345 4.66719,31.95345 0,0 -215.86496,-128.501 -215.86496,-129.84194 0,-1.34094 -17.26458,-68.90211 -17.26458,-68.90211"
         inkscape:connector-curvature="0"
         style="fill:#272926" />
      <path
         id="path3057"
         d="m 55.943,132.74611 c -0.45231,0.28348 15.26699,-28.07079 34.60881,-43.14248 19.34182,-15.07169 40.58053,-27.46355 62.58032,-31.76425 21.99979,-4.3007 51.67711,0.01079 68.74352,3.31865 17.06641,3.30786 28.45622,10.44828 42.1943,15.64508 13.73808,5.1968 68.27892,52.92298 95.76684,85.81088 23.56984,28.20012 40.14105,59.4174 57.83938,93.87047 0,0 1.89637,33.66062 -13.27462,52.15026 -15.17099,18.48964 -46.93523,34.13471 -46.93523,34.13471 3.46752,-2.5336 -6.54673,-34.42393 -24.65285,-56.89119 C 301.78167,247.37195 259.49363,223.0509 225.1943,207.17876 185.45338,186.92709 137.92342,174.3868 90.07772,156.45078 77.35937,151.22945 64.93321,145.42374 55.943,132.74611 Z"
         inkscape:connector-curvature="0"
         style="fill:url(#linearGradient3945);fill-opacity:1" />
      <g
         id="g3059"
         transform="translate(-330.49565,-227.87965)">
        <path
           id="path3061"
           d="m 608.02061,312.80824 c 13.73807,7.37582 59.54266,47.37531 83.6984,76.42431 21.71123,26.10931 36.11824,52.04224 53.81657,86.49531"
           inkscape:connector-curvature="0"
           style="fill:none;stroke:#3b3b3b;stroke-width:3;stroke-linecap:round;stroke-linejoin:round" />
        <path
           id="path3063"
           d="m 551.75787,289.77659 c 17.06641,3.30787 28.45622,10.44829 42.1943,15.64508 13.73808,5.19679 68.27892,52.92298 95.76684,85.81088 23.56984,28.20012 40.14105,59.4174 57.83938,93.87047"
           inkscape:connector-curvature="0"
           style="fill:none;stroke:#e3e3e3;stroke-width:0.2;filter:url(#filter3983)" />
      </g>
      <g
         id="g3065"
         transform="translate(-450.36432,1.86993)">
        <path
           id="path3067"
           d="m 562.39458,73.45076 c 6.3052,-1.433 9.81967,-0.60702 20.26604,0.03369 32.7059,2.00598 57.36529,11.37824 57.36529,11.37824 0,0 14.01246,3.8552 26.54922,11.85233 19.53614,12.46201 25.8365,17.41163 24.67668,24.15001 -1.65409,9.60999 -22.21628,11.20869 -36.22254,6.46968 -13.63618,-4.61379 -59.32427,-22.22187 -90.38419,-27.30103 -10.67493,-1.74565 -13.22731,-2.32597 -35.61945,-0.83316 7.48317,-8.84324 19.66686,-17.35073 33.36895,-25.74976 z"
           inkscape:connector-curvature="0"
           style="fill:#1a1a1a" />
        <path
           id="path3069"
           d="m 562.39458,73.45076 c 6.3052,-1.433 9.81967,-0.60702 20.26604,0.03369 32.7059,2.00598 57.36529,11.37824 57.36529,11.37824 0,0 14.01246,3.8552 26.54922,11.85233 19.53614,12.46201 25.8365,17.41163 24.67668,24.15001 -1.65409,9.60999 -22.21628,11.20869 -36.22254,6.46968 -13.63618,-4.61379 -59.32427,-22.22187 -90.38419,-27.30103 -10.67493,-1.74565 -13.22731,-2.32597 -35.61945,-0.83316"
           inkscape:connector-curvature="0"
           style="fill:none;stroke:#000000;filter:url(#filter4030)" />
        <path
           id="path3071"
           d="m 564.24977,72.73816 c 6.3052,-1.433 9.81967,-0.60702 20.26604,0.03369 32.7059,2.00598 57.36529,11.37824 57.36529,11.37824 0,0 14.01246,3.8552 26.54922,11.85233 19.53614,12.462 25.8365,17.41162 24.67668,24.15"
           inkscape:connector-curvature="0"
           style="fill:none;stroke:#f7f7f7;stroke-width:0.5;filter:url(#filter4034)" />
      </g>
      <g
         id="g3073"
         transform="translate(-454.57807,1.34094)">
        <path
           id="path3075"
           d="m 573.71211,95.0557 c 0,0 -8.29663,-0.53336 -10.43005,-1.42228 -2.13342,-0.88892 -4.62241,-0.23705 -3.31865,-2.66677 1.30376,-2.42972 3.02234,-5.39281 4.74093,-6.75583 1.71859,-1.36302 2.96308,-3.61496 4.80019,-4.26684 1.83711,-0.65188 27.14184,1.48154 29.15674,1.83711 2.0149,0.35557 4.85946,0.65188 4.20758,1.95563 -0.65188,1.30375 -2.54825,5.62986 -3.61496,6.63731 -1.06671,1.00745 -5.27429,4.14832 -8.05959,4.62241 -2.7853,0.47409 -17.48219,0.05926 -17.48219,0.05926 z"
           inkscape:connector-curvature="0"
           style="filter:url(#filter4060)" />
        <path
           id="path3077"
           d="m 566.04356,83.7325 c -1.77506,2.22837 -4.788,5.08255 -3.68758,7.71039 1.39227,3.32479 6.68188,2.85559 10.22465,3.51996 5.60566,1.05122 11.60411,2.20568 17.09697,0.67047 3.99973,-1.11789 8.03019,-3.45644 10.39227,-6.87231 0.71695,-1.0368 1.35556,-2.53816 0.83808,-3.68758 -1.90929,-4.24088 -7.72457,-5.57468 -12.23606,-6.70469 -5.20331,-1.30329 -11.03609,-1.62634 -16.09126,0.16762 -2.62326,0.93093 -4.80276,3.01892 -6.53707,5.19614 z"
           inkscape:connector-curvature="0"
           style="fill:url(#radialGradient5411)" />
      </g>
      <path
         id="path3079"
         d="m 357.46633,342.76943 c 3.46752,-2.5336 -4.96123,-35.53533 -23.06735,-58.00259 C 303.36718,246.26055 261.07914,221.9395 226.7798,206.06736 187.03887,185.81569 139.50891,173.2754 91.66322,155.33938 78.94487,150.11805 66.51871,144.31234 57.5285,131.63471"
         inkscape:connector-curvature="0"
         style="fill:none;stroke:#f6f6f6;stroke-linecap:round;stroke-linejoin:round;filter:url(#filter3865)" />
      <path
         id="path3081"
         d="m 357.46633,342.76943 c 3.46752,-2.5336 -6.54673,-34.42393 -24.65285,-56.89119 C 301.78168,247.37195 259.49364,223.0509 225.19431,207.17876 185.45338,186.92709 137.92342,174.3868 90.07773,156.45078 77.35938,151.22945 66.93322,149.42374 57.94301,136.74611"
         inkscape:connector-curvature="0"
         style="fill:none;stroke:#000000;stroke-width:3;stroke-linecap:round;stroke-linejoin:round;filter:url(#filter3898)" />
      <path
         id="path3083"
         d="m 353.43211,343.17311 c 3.46752,-2.5336 -6.54673,-34.42393 -24.65285,-56.89119 C 297.74746,247.77563 255.45942,223.45458 221.16009,207.58244 181.41916,187.33077 133.8892,174.79048 86.0435,156.85446 73.32515,151.63313 62.89899,149.82742 53.90878,137.14979"
         inkscape:connector-curvature="0"
         style="fill:none;stroke:#929292;stroke-width:0.5;stroke-linecap:round;stroke-linejoin:round;filter:url(#filter3898)" />
      <g
         id="g3085"
         transform="matrix(0.88226,-0.05998,0.05897,0.98169,25.48352,23.52618)">
        <path
           id="path3087"
           d="m 329.02074,348.45855 c 3.46752,-2.5336 -4.96123,-35.53533 -23.06735,-58.00259 C 274.92159,251.94967 232.63355,227.62862 198.33421,211.75648 158.59328,191.50481 111.06331,178.96452 63.21762,161.0285 50.49927,155.80717 38.07311,150.00146 29.0829,137.32383"
           inkscape:connector-curvature="0"
           style="fill:none;stroke:#f6f6f6;stroke-linecap:round;stroke-linejoin:round;filter:url(#filter3865)" />
        <path
           id="path3089"
           d="m 329.02074,348.45855 c 3.46752,-2.5336 -6.54673,-34.42393 -24.65285,-56.89119 C 273.33609,253.06107 231.04805,228.74002 196.74872,212.86788 157.00779,192.61621 109.47782,180.07592 61.63213,162.1399 48.91378,156.91857 36.48762,151.11286 27.49741,138.43523"
           inkscape:connector-curvature="0"
           style="fill:none;stroke:#000000;stroke-width:3;stroke-linecap:round;stroke-linejoin:round;filter:url(#filter3898)" />
        <path
           id="path3091"
           d="m 324.98652,348.86223 c 3.46752,-2.5336 -6.54673,-34.42393 -24.65285,-56.89119 C 269.30187,253.46475 227.01383,229.1437 192.7145,213.27156 152.97357,193.01989 105.4436,180.4796 57.59791,162.54358 44.87956,157.32225 32.4534,151.51654 23.46319,138.83891"
           inkscape:connector-curvature="0"
           style="fill:none;stroke:#929292;stroke-width:0.5;stroke-linecap:round;stroke-linejoin:round;filter:url(#filter3898)" />
      </g>
      <path
         id="path3093"
         d="m 118.04922,211.44559 c 0,0 33.18653,22.75648 44.56477,34.60881 11.37824,11.85233 24.65285,38.87565 28.4456,41.72021 3.79275,2.84456 10.43005,4.74093 12.80052,2.84456 2.37047,-1.89637 1.42227,-18.48964 -1.89638,-23.23057 -3.31865,-4.74093 -12.32642,-18.96373 -31.29015,-28.4456 -18.96373,-9.48187 -52.62436,-27.49741 -52.62436,-27.49741 z"
         inkscape:connector-curvature="0"
         style="fill:#151515;stroke:#070707" />
      <path
         id="path3095"
         d="m 146.60634,197.64242 -3.48414,3.46323 33.12327,18.10442 3.19111,-2.56161 1.54502,-7.15676 z"
         inkscape:connector-curvature="0"
         style="stroke:#000000" />
      <path
         id="path3097"
         d="m 143.1222,201.10565 0.13006,6.83615 32.99321,11.26827 0.69297,-8.61182 z"
         inkscape:connector-curvature="0"
         style="fill:#494949" />
      <path
         id="path3099"
         d="m 143.1222,201.10565 33.81624,9.4926"
         inkscape:connector-curvature="0"
         style="fill:none;stroke:#d9d9d9;stroke-width:0.3;filter:url(#filter3954)" />
      <path
         id="path3101"
         d="m 339.59261,126.96635 c 0,0 18.94076,18.92935 34.52916,37.19963 15.45342,18.11208 34.17111,49.21104 38.19393,62.95565"
         inkscape:connector-curvature="0"
         style="fill:none;stroke:#000000;stroke-width:2;filter:url(#filter3966)" />
      <g
         aria-label="Orbit"
         transform="scale(0.93673191,1.0675413)"
         id="text2620"
         style="font-size:48.7853px;font-family:montserrat;-inkscape-font-specification:montserrat;stroke-width:1.51424">
        <path
           d="m -133.93655,41.740588 q 0,5.803649 -2.20019,9.874866 -2.18287,4.071216 -5.95957,6.219433 -3.75938,2.130892 -8.45427,2.130892 -4.72954,0 -8.48892,-2.148217 -3.75938,-2.148216 -5.94225,-6.219433 -2.18286,-4.071216 -2.18286,-9.857541 0,-5.803649 2.18286,-9.874866 2.18287,-4.071216 5.94225,-6.202108 3.75938,-2.148217 8.48892,-2.148217 4.69489,0 8.45427,2.148217 3.7767,2.130892 5.95957,6.202108 2.20019,4.071217 2.20019,9.874866 z m -7.60538,0 q 0,-3.759379 -1.12608,-6.340703 -1.10876,-2.581325 -3.13571,-3.915298 -2.02694,-1.333973 -4.74686,-1.333973 -2.71992,0 -4.74687,1.333973 -2.02694,1.333973 -3.15302,3.915298 -1.10876,2.581324 -1.10876,6.340703 0,3.759379 1.10876,6.340703 1.12608,2.581325 3.15302,3.915298 2.02695,1.333973 4.74687,1.333973 2.71992,0 4.74686,-1.333973 2.02695,-1.333973 3.13571,-3.915298 1.12608,-2.581324 1.12608,-6.340703 z"
           style="-inkscape-font-specification:'Inter Bold';fill:#ffffff"
           id="path100574" />
        <path
           d="M -128.5314,59.480698 V 32.870533 h 7.15495 v 4.64292 h 0.27719 q 0.72762,-2.477379 2.44273,-3.742055 1.71511,-1.282 3.94995,-1.282 0.55437,0 1.19537,0.0693 0.641,0.0693 1.12608,0.190568 v 6.548595 q -0.51972,-0.155919 -1.43791,-0.277189 -0.91819,-0.12127 -1.68046,-0.12127 -1.62849,0 -2.91049,0.710297 -1.26468,0.692973 -2.00962,1.940325 -0.72762,1.247351 -0.72762,2.875838 v 15.054839 z"
           style="-inkscape-font-specification:'Inter Bold';fill:#ffffff"
           id="path100576" />
        <path
           d="M -108.45253,59.480698 V 24.000479 h 7.38016 v 13.33973 h 0.22522 q 0.48508,-1.074108 1.403271,-2.182865 0.935513,-1.126081 2.425405,-1.871027 1.507217,-0.76227 3.742055,-0.76227 2.910486,0 5.370541,1.52454 2.460054,1.507217 3.932622,4.556298 1.472567,3.031757 1.472567,7.605379 0,4.452352 -1.437919,7.518757 -1.420595,3.049082 -3.880649,4.625595 -2.44273,1.55919 -5.474487,1.55919 -2.148216,0 -3.655432,-0.710298 -1.489892,-0.710297 -2.44273,-1.784405 -0.952834,-1.091433 -1.455244,-2.200189 h -0.32916 v 4.261784 z m 7.22425,-13.305083 q 0,2.373433 0.65832,4.140514 0.658324,1.767082 1.905675,2.754568 1.247352,0.970162 3.031757,0.970162 1.80173,0 3.049082,-0.987486 1.247351,-1.004811 1.888351,-2.771892 0.658325,-1.784406 0.658325,-4.105866 0,-2.304135 -0.641001,-4.053892 -0.641,-1.749757 -1.888351,-2.737243 -1.247351,-0.987487 -3.066406,-0.987487 -1.80173,0 -3.049081,0.952838 -1.230027,0.952838 -1.888351,2.702595 -0.65832,1.749757 -0.65832,4.123189 z"
           style="-inkscape-font-specification:'Inter Bold';fill:#ffffff"
           id="path100578" />
        <path
           d="M -77.597933,59.480698 V 32.870533 h 7.380163 v 26.610165 z m 3.707406,-30.040381 q -1.645811,0 -2.823865,-1.091433 -1.16073,-1.108757 -1.16073,-2.650622 0,-1.52454 1.16073,-2.615973 1.178054,-1.108757 2.823865,-1.108757 1.645811,0 2.806541,1.108757 1.178054,1.091433 1.178054,2.615973 0,1.541865 -1.178054,2.650622 -1.16073,1.091433 -2.806541,1.091433 z"
           style="-inkscape-font-specification:'Inter Bold';fill:#ffffff"
           id="path100580" />
        <path
           d="m -50.17355,32.870533 v 5.543785 h -16.025001 v -5.543785 z m -12.386893,-6.375352 h 7.380163 v 24.808435 q 0,1.022135 0.311838,1.593838 0.311838,0.554378 0.866216,0.779595 0.571703,0.225216 1.316649,0.225216 0.51973,0 1.039459,-0.08662 0.51973,-0.103946 0.796919,-0.155919 l 1.16073,5.491811 q -0.554378,0.173244 -1.559189,0.39846 -1.004811,0.24254 -2.44273,0.294513 -2.667946,0.103946 -4.677568,-0.710297 -1.992297,-0.814243 -3.101054,-2.529351 -1.108757,-1.715109 -1.091433,-4.331082 z"
           style="-inkscape-font-specification:'Inter Bold';fill:#ffffff"
           id="path100582" />
      </g>
      <g
         aria-label="Strafe"
         transform="scale(0.93673191,1.0675413)"
         id="text2620-6"
         style="font-size:48.7853px;font-family:montserrat;-inkscape-font-specification:montserrat;stroke-width:1.51424">
        <path
           d="m 235.67796,-137.4035 q -0.20789,-2.09625 -1.7844,-3.25698 -1.57651,-1.16073 -4.27911,-1.16073 -1.83638,0 -3.10105,0.51973 -1.26468,0.50241 -1.94033,1.40327 -0.65832,0.90087 -0.65832,2.04427 -0.0346,0.95284 0.39846,1.66314 0.45043,0.7103 1.23002,1.23003 0.7796,0.5024 1.80173,0.88354 1.02214,0.36381 2.18287,0.62367 l 3.18767,0.76227 q 2.32146,0.51973 4.26179,1.38595 1.94032,0.86622 3.36092,2.13089 1.42059,1.26468 2.20019,2.97979 0.79692,1.7151 0.81424,3.93262 -0.0173,3.25697 -1.66313,5.64773 -1.62849,2.37343 -4.71222,3.69008 -3.06641,1.29932 -7.39749,1.29932 -4.29643,0 -7.48411,-1.31665 -3.17035,-1.31664 -4.95475,-3.89797 -1.76709,-2.59865 -1.85371,-6.42732 h 7.2589 q 0.12127,1.7844 1.02213,2.97978 0.91819,1.17806 2.44273,1.78441 1.54187,0.58902 3.48219,0.58902 1.90568,0 3.30895,-0.55437 1.42059,-0.55438 2.20019,-1.54187 0.77959,-0.98749 0.77959,-2.26949 0,-1.19538 -0.7103,-2.00962 -0.69297,-0.81424 -2.04427,-1.38594 -1.33397,-0.57171 -3.27429,-1.03946 l -3.86333,-0.97017 q -4.487,-1.09143 -7.08565,-3.41289 -2.59865,-2.32146 -2.58132,-6.25408 -0.0173,-3.22232 1.7151,-5.63041 1.74976,-2.40808 4.79884,-3.75937 3.04908,-1.3513 6.92973,-1.3513 3.94995,0 6.89509,1.3513 2.96245,1.35129 4.60827,3.75937 1.64581,2.40809 1.69778,5.57844 z"
           style="-inkscape-font-specification:'Inter Bold';fill:#ffffff"
           id="path100549" />
        <path
           d="m 262.39205,-138.73748 v 5.54379 h -16.025 v -5.54379 z m -12.38689,-6.37535 h 7.38016 v 24.80844 q 0,1.02213 0.31184,1.59383 0.31184,0.55438 0.86621,0.7796 0.57171,0.22522 1.31665,0.22522 0.51973,0 1.03946,-0.0866 0.51973,-0.10394 0.79692,-0.15592 l 1.16073,5.49182 q -0.55438,0.17324 -1.55919,0.39846 -1.00481,0.24254 -2.44273,0.29451 -2.66794,0.10395 -4.67757,-0.7103 -1.99229,-0.81424 -3.10105,-2.52935 -1.10876,-1.71511 -1.09143,-4.33108 z"
           style="-inkscape-font-specification:'Inter Bold';fill:#ffffff"
           id="path100551" />
        <path
           d="m 267.1908,-112.12731 v -26.61017 h 7.15495 v 4.64292 h 0.27719 q 0.72762,-2.47738 2.44273,-3.74205 1.71511,-1.282 3.94994,-1.282 0.55438,0 1.19538,0.0693 0.641,0.0693 1.12608,0.19056 v 6.5486 q -0.51973,-0.15592 -1.43792,-0.27719 -0.91818,-0.12127 -1.68046,-0.12127 -1.62848,0 -2.91048,0.7103 -1.26468,0.69297 -2.00962,1.94032 -0.72763,1.24735 -0.72763,2.87584 v 15.05484 z"
           style="-inkscape-font-specification:'Inter Bold';fill:#ffffff"
           id="path100553" />
        <path
           d="m 293.97417,-111.62491 q -2.54668,0 -4.53897,-0.88354 -1.9923,-0.90086 -3.15303,-2.65062 -1.14341,-1.76708 -1.14341,-4.40038 0,-2.21751 0.81425,-3.72473 0.81424,-1.50721 2.21751,-2.4254 1.40327,-0.91819 3.18768,-1.38595 1.80173,-0.46776 3.7767,-0.65832 2.32146,-0.24254 3.74205,-0.45044 1.4206,-0.22521 2.0616,-0.65832 0.641,-0.43311 0.641,-1.282 v -0.10395 q 0,-1.64581 -1.03946,-2.54667 -1.02214,-0.90087 -2.91049,-0.90087 -1.9923,0 -3.17035,0.88354 -1.17805,0.86622 -1.55919,2.18287 l -6.82578,-0.55438 q 0.51973,-2.42541 2.04427,-4.19249 1.52454,-1.7844 3.93262,-2.73724 2.4254,-0.97016 5.61308,-0.97016 2.21751,0 4.24446,0.51973 2.04427,0.51973 3.62078,1.61116 1.59384,1.09143 2.51203,2.80654 0.91819,1.69778 0.91819,4.07122 v 17.948 h -6.99903 v -3.69008 h -0.20789 q -0.641,1.24735 -1.71511,2.20019 -1.07411,0.93551 -2.58132,1.47256 -1.50722,0.51973 -3.48219,0.51973 z m 2.11357,-5.09335 q 1.62848,0 2.87583,-0.641 1.24736,-0.65832 1.95765,-1.76708 0.7103,-1.10876 0.7103,-2.51203 v -2.82386 q -0.34649,0.22521 -0.95284,0.41578 -0.58902,0.17325 -1.33397,0.32916 -0.74495,0.1386 -1.48989,0.25987 -0.74495,0.10395 -1.3513,0.19057 -1.29932,0.19056 -2.26949,0.60635 -0.97016,0.41578 -1.50721,1.12608 -0.53706,0.69297 -0.53706,1.73243 0,1.50722 1.09144,2.30414 1.10875,0.77959 2.80654,0.77959 z"
           style="-inkscape-font-specification:'Inter Bold';fill:#ffffff"
           id="path100555" />
        <path
           d="m 329.00395,-138.73748 v 5.54379 h -16.42347 v -5.54379 z m -12.66409,26.61017 v -28.53317 q 0,-2.89316 1.12608,-4.79883 1.14341,-1.90568 3.11838,-2.85852 1.97498,-0.95284 4.487,-0.95284 1.69779,0 3.10106,0.25987 1.42059,0.25986 2.11357,0.46776 l -1.31665,5.54378 q -0.43311,-0.13859 -1.07411,-0.25987 -0.62368,-0.12127 -1.282,-0.12127 -1.62849,0 -2.26949,0.76228 -0.641,0.74494 -0.641,2.09624 v 28.39457 z"
           style="-inkscape-font-specification:'Inter Bold';fill:#ffffff"
           id="path100557" />
        <path
           d="m 344.69973,-111.60758 q -4.10587,0 -7.06833,-1.66314 -2.94513,-1.68046 -4.53897,-4.74686 -1.59384,-3.08373 -1.59384,-7.29354 0,-4.10587 1.59384,-7.20692 1.59384,-3.10106 4.487,-4.83349 2.91049,-1.73243 6.82578,-1.73243 2.6333,0 4.90279,0.84889 2.28681,0.83157 3.98459,2.51203 1.71511,1.68046 2.66795,4.22713 0.95284,2.52935 0.95284,5.92492 v 2.02695 h -22.46965 v -4.57362 h 15.52259 q 0,-1.59384 -0.69297,-2.82387 -0.69297,-1.23003 -1.923,-1.923 -1.2127,-0.7103 -2.82387,-0.7103 -1.68046,0 -2.97978,0.7796 -1.282,0.76227 -2.00962,2.06159 -0.72762,1.282 -0.74495,2.85852 v 4.3484 q 0,1.97498 0.72762,3.41289 0.74495,1.43792 2.09625,2.21752 1.35129,0.77959 3.205,0.77959 1.23002,0 2.25216,-0.34648 1.02213,-0.34649 1.74976,-1.03946 0.72762,-0.69298 1.10875,-1.69779 l 6.82579,0.45043 q -0.51973,2.46006 -2.13089,4.29644 -1.59384,1.81905 -4.12319,2.84119 -2.51203,1.00481 -5.80365,1.00481 z"
           style="-inkscape-font-specification:'Inter Bold';fill:#ffffff"
           id="path100559" />
      </g>
      <g
         aria-label="Dolly/Roll"
         transform="scale(0.93673191,1.0675413)"
         id="text2620-6-3"
         style="font-size:48.7853px;font-family:montserrat;-inkscape-font-specification:montserrat;stroke-width:1.51424">
        <path
           d="m -60.286602,-186.6335 h -12.57746 v -35.48022 h 12.681406 q 5.353217,0 9.216542,2.13089 3.863324,2.11357 5.942243,6.08084 2.096244,3.96727 2.096244,9.49373 0,5.54379 -2.096244,9.52838 -2.078919,3.9846 -5.976892,6.11549 -3.880649,2.13089 -9.285839,2.13089 z m -5.076027,-6.42732 h 4.76419 q 3.32627,0 5.595757,-1.17806 2.286811,-1.19538 3.430216,-3.69008 1.16073,-2.51203 1.16073,-6.4793 0,-3.93262 -1.16073,-6.42732 -1.143405,-2.49471 -3.412892,-3.67276 -2.269487,-1.17805 -5.595757,-1.17805 h -4.781514 z"
           style="-inkscape-font-specification:'Inter Bold';fill:#ffffff"
           id="path100508" />
        <path
           d="m -25.499388,-186.11377 q -4.036568,0 -6.981703,-1.71511 -2.927811,-1.73243 -4.521649,-4.81616 -1.593838,-3.10105 -1.593838,-7.1896 0,-4.12318 1.593838,-7.20691 1.593838,-3.10106 4.521649,-4.81617 2.945135,-1.73243 6.981703,-1.73243 4.036568,0 6.964379,1.73243 2.945135,1.71511 4.538973,4.81617 1.593838,3.08373 1.593838,7.20691 0,4.08855 -1.593838,7.1896 -1.593838,3.08373 -4.538973,4.81616 -2.927811,1.71511 -6.964379,1.71511 z m 0.03465,-5.71703 q 1.836379,0 3.066406,-1.03946 1.230027,-1.05678 1.853703,-2.87583 0.641,-1.81906 0.641,-4.14052 0,-2.32146 -0.641,-4.14051 -0.623676,-1.81906 -1.853703,-2.87584 -1.230027,-1.05678 -3.066406,-1.05678 -1.853702,0 -3.118378,1.05678 -1.247352,1.05678 -1.888352,2.87584 -0.623675,1.81905 -0.623675,4.14051 0,2.32146 0.623675,4.14052 0.641,1.81905 1.888352,2.87583 1.264676,1.03946 3.118378,1.03946 z"
           style="-inkscape-font-specification:'Inter Bold';fill:#ffffff"
           id="path100510" />
        <path
           d="m -0.20589084,-222.11372 v 35.48022 H -7.5860536 v -35.48022 z"
           style="-inkscape-font-specification:'Inter Bold';fill:#ffffff"
           id="path100512" />
        <path
           d="m 13.064518,-222.11372 v 35.48022 H 5.684355 v -35.48022 z"
           style="-inkscape-font-specification:'Inter Bold';fill:#ffffff"
           id="path100514" />
        <path
           d="m 23.511061,-176.65469 q -1.40327,0 -2.633297,-0.22521 -1.212703,-0.2079 -2.009622,-0.53706 l 1.663135,-5.50913 q 1.299325,0.39846 2.338784,0.4331 1.056784,0.0346 1.819054,-0.48508 0.779595,-0.51973 1.264676,-1.76708 l 0.433108,-1.12608 -9.545703,-27.37243 h 7.761298 l 5.509135,19.54184 h 0.27719 l 5.561108,-19.54184 h 7.813271 l -10.342622,29.486 q -0.744946,2.14822 -2.026946,3.74205 -1.264676,1.61117 -3.205001,2.47738 -1.940324,0.88354 -4.677568,0.88354 z"
           style="-inkscape-font-specification:'Inter Bold';fill:#ffffff"
           id="path100516" />
        <path
           d="m 60.221134,-223.77685 -11.434055,42.47924 h -6.358027 l 11.434055,-42.47924 z"
           style="-inkscape-font-specification:'Inter Bold';fill:#ffffff"
           id="path100518" />
        <path
           d="m 63.928479,-186.6335 v -35.48022 h 13.998056 q 4.019243,0 6.860433,1.43792 2.858513,1.4206 4.348405,4.03657 1.507217,2.59865 1.507217,6.11549 0,3.53416 -1.524541,6.08083 -1.524541,2.52936 -4.417703,3.88065 -2.875838,1.3513 -6.964379,1.3513 h -9.37246 v -6.02886 h 8.159757 q 2.148217,0 3.568811,-0.58903 1.420595,-0.58903 2.113568,-1.76708 0.710297,-1.17806 0.710297,-2.92781 0,-1.76709 -0.710297,-2.97979 -0.692973,-1.2127 -2.130892,-1.83638 -1.420595,-0.641 -3.586135,-0.641 h -5.058704 v 29.34741 z m 19.160705,-16.14627 8.818081,16.14627 h -8.281027 l -8.627514,-16.14627 z"
           style="-inkscape-font-specification:'Inter Bold';fill:#ffffff"
           id="path100520" />
        <path
           d="m 107.37777,-186.11377 q -4.03657,0 -6.9817,-1.71511 -2.927813,-1.73243 -4.521651,-4.81616 -1.593838,-3.10105 -1.593838,-7.1896 0,-4.12318 1.593838,-7.20691 1.593838,-3.10106 4.521651,-4.81617 2.94513,-1.73243 6.9817,-1.73243 4.03657,0 6.96438,1.73243 2.94514,1.71511 4.53897,4.81617 1.59384,3.08373 1.59384,7.20691 0,4.08855 -1.59384,7.1896 -1.59383,3.08373 -4.53897,4.81616 -2.92781,1.71511 -6.96438,1.71511 z m 0.0346,-5.71703 q 1.83638,0 3.06641,-1.03946 1.23002,-1.05678 1.8537,-2.87583 0.641,-1.81906 0.641,-4.14052 0,-2.32146 -0.641,-4.14051 -0.62368,-1.81906 -1.8537,-2.87584 -1.23003,-1.05678 -3.06641,-1.05678 -1.8537,0 -3.11838,1.05678 -1.24735,1.05678 -1.88835,2.87584 -0.62368,1.81905 -0.62368,4.14051 0,2.32146 0.62368,4.14052 0.641,1.81905 1.88835,2.87583 1.26468,1.03946 3.11838,1.03946 z"
           style="-inkscape-font-specification:'Inter Bold';fill:#ffffff"
           id="path100522" />
        <path
           d="m 132.67127,-222.11372 v 35.48022 h -7.38016 v -35.48022 z"
           style="-inkscape-font-specification:'Inter Bold';fill:#ffffff"
           id="path100524" />
        <path
           d="m 145.94167,-222.11372 v 35.48022 h -7.38016 v -35.48022 z"
           style="-inkscape-font-specification:'Inter Bold';fill:#ffffff"
           id="path100526" />
      </g>
      <path
         style="fill:none;stroke:#ffffff;stroke-width:6.45389;stroke-linecap:round;stroke-linejoin:miter;stroke-miterlimit:4;stroke-dasharray:none;stroke-opacity:1;marker-start:url(#DotS)"
         d="m 61.803652,118.686 c -30.726239,0.6889 -72.777163,-9.91573 -92.239375,-31.987262"
         id="path18464"
         sodipodi:nodetypes="cc" />
      <path
         style="fill:none;stroke:#ffffff;stroke-width:6.45389;stroke-linecap:round;stroke-linejoin:miter;stroke-miterlimit:4;stroke-dasharray:none;stroke-opacity:1;marker-start:url(#DotS)"
         d="M 100.9834,78.61566 C 59.114003,45.812621 39.898906,-8.8080713 24.324253,-46.402245"
         id="path18464-2"
         sodipodi:nodetypes="cc" />
      <path
         style="fill:none;stroke:#ffffff;stroke-width:6.45389;stroke-linecap:round;stroke-linejoin:miter;stroke-miterlimit:4;stroke-dasharray:none;stroke-opacity:1;marker-start:url(#DotS)"
         d="m 162.81242,55.838729 c 2.32403,-28.42113 16.49701,-53.5484385 31.11857,-67.768187"
         id="path18464-2-9"
         sodipodi:nodetypes="cc" />
      <g
         id="g92935">
        <g
           id="path92937" />
      </g>
      <path
         id="path93398"
         style="color:#000000;fill:#c7abd5;fill-opacity:1;stroke-width:1.96781;stroke-linecap:round;-inkscape-stroke:none"
         transform="matrix(0.47602879,0,0,0.54250355,37.938749,-6.7496773)"
         d="m -273.50977,204.35156 a 5.3377024,4.683656 0 0 0 -5.33789,4.6836 5.3377024,4.683656 0 0 0 5.33789,4.68359 c 43.69996,0 83.97584,11.94632 104.80665,29.98633 10.41539,9.01999 15.20116,18.5989 15.20117,28.00195 0,9.40307 -4.78578,18.98586 -15.20117,28.00586 -12.23624,10.59689 -31.19911,19.07436 -53.60743,24.2793 1.32115,-3.9055 3.39989,-7.65066 6.25782,-11.0586 a 2.0018334,1.7565421 0 0 0 -2.30079,-2.68945 l -69.98437,22.58008 a 2.0018334,1.7565421 0 0 0 0,3.29492 l 69.98437,22.58398 a 2.0018334,1.7565421 0 0 0 2.31446,-2.67578 c -5.36616,-6.56052 -8.03157,-14.24511 -7.98438,-21.88281 25.6945,-5.32819 47.87243,-14.82571 62.81641,-27.76758 11.97546,-10.37104 18.38086,-22.43206 18.38086,-34.66992 0,-12.23784 -6.4054,-24.29887 -18.38086,-34.66992 -23.95091,-20.74211 -66.43925,-32.68555 -112.30274,-32.68555 z m -92.26562,-17.52539 a 2.0018334,1.7565421 0 0 0 -1.60547,2.77735 c 5.36106,6.55429 8.02633,14.23184 7.98438,21.86328 -25.7012,5.32686 -47.86923,14.84245 -62.81641,27.78711 -11.97547,10.37103 -18.38088,22.43208 -18.38086,34.66992 0,12.23784 6.40539,24.30083 18.38086,34.67187 23.9509,20.7421 66.43731,32.68555 112.30078,32.68555 a 5.3377024,4.683656 0 0 0 5.33984,-4.68359 5.3377024,4.683656 0 0 0 -5.33984,-4.6836 c -43.69994,0 -83.96998,-11.94631 -104.80078,-29.98633 -10.4154,-9.01999 -15.20508,-18.60085 -15.20508,-28.0039 -2e-5,-9.40307 4.78968,-18.98198 15.20508,-28.00195 12.23932,-10.59957 31.19529,-19.08995 53.60937,-24.29493 -1.32084,3.91159 -3.4039,7.66364 -6.26562,11.07617 a 2.0018334,1.7565421 0 0 0 2.30664,2.68946 l 69.98047,-22.58203 a 2.0018334,1.7565421 0 0 0 0,-3.29688 l -69.98047,-22.58008 a 2.0018334,1.7565421 0 0 0 -0.71289,-0.10742 z" />
      <g
         id="g93373"
         transform="scale(-1)">
        <g
           id="path93375" />
      </g>
      <ellipse
         style="fill:url(#radialGradient70011);fill-opacity:1;stroke:#ffffff;stroke-width:2.86563;stroke-linecap:round;stroke-miterlimit:4;stroke-dasharray:none;stroke-opacity:0.600688"
         id="path68251"
         cx="-100.27767"
         cy="141.48573"
         rx="18.421902"
         ry="20.994417" />
      <ellipse
         style="fill:url(#radialGradient70011-9);fill-opacity:1;stroke:#ffffff;stroke-width:2.86569;stroke-linecap:round;stroke-miterlimit:4;stroke-dasharray:none;stroke-opacity:0.618772"
         id="path68251-2"
         cx="271.20126"
         cy="-34.232155"
         rx="18.421902"
         ry="20.994417" />
      <ellipse
         style="fill:url(#radialGradient70011-9-74);fill-opacity:1;stroke:#ffffff;stroke-width:2.86569;stroke-linecap:round;stroke-miterlimit:4;stroke-dasharray:none;stroke-opacity:0.618772"
         id="path68251-2-7"
         cx="-28.564137"
         cy="-112.52065"
         rx="18.421902"
         ry="20.994417" />
      <ellipse
         style="fill:url(#radialGradient70011-9-74-4);fill-opacity:1;stroke:#ffffff;stroke-width:2.86569;stroke-linecap:round;stroke-miterlimit:4;stroke-dasharray:none;stroke-opacity:0.618772"
         id="path68251-2-7-7"
         cx="78.847443"
         cy="-109.94563"
         rx="18.421902"
         ry="20.994417" />
      <g
         id="g71398"
         transform="translate(-160.95617,70.284219)">
        <g
           id="path70342">
          <g
             id="g89802">
            <g
               id="path89804" />
          </g>
        </g>
        <g
           id="path70342-6">
          <g
             id="g89816">
            <g
               id="path89818" />
          </g>
        </g>
      </g>
      <path
         id="path90116"
         style="color:#000000;fill:#c7abd5;fill-opacity:1;stroke-width:1;-inkscape-stroke:none"
         d="m 231.86004,-46.266616 a 0.6689334,0.86880361 0 0 0 -0.18501,0.05086 l -23.38492,11.167945 a 0.6689334,0.86880361 0 0 0 0,1.631748 l 23.38492,11.169005 a 0.6689334,0.86880361 0 0 0 0.88232,-0.620913 0.6689334,0.86880361 0 0 0 -0.10785,-0.70144 c -1.40793,-2.547791 -2.25781,-5.438481 -2.55122,-8.391852 h 16.54293 v -4.631412 h -16.54572 c 0.28999,-2.941882 1.13838,-5.799651 2.55122,-8.293311 a 0.6689334,0.86880361 0 0 0 -0.58667,-1.38063 z m 78.62843,0 a 0.6689334,0.86880361 0 0 0 -0.53553,1.371094 c 1.4078,2.547572 2.25773,5.438744 2.55121,8.391851 h -16.54293 v 4.631412 h 16.54572 c -0.28995,2.941997 -1.13743,5.800624 -2.55029,8.294372 a 0.6689334,0.86880361 0 0 0 0.76983,1.330829 l 23.38585,-11.169005 a 0.6689334,0.86880361 0 0 0 0.43698,-0.814814 0.6689334,0.86880361 0 0 0 -0.43698,-0.816934 l -23.38677,-11.167945 a 0.6689334,0.86880361 0 0 0 -0.23709,-0.05086 z M 269.12976,-6.0143303 V 12.841906 c -2.58118,-0.330564 -5.08919,-1.297478 -7.27711,-2.9074796 a 0.76234619,0.76234618 0 0 0 -1.1659,0.8794496 l 9.79857,26.650487 a 0.76234619,0.76234618 0 0 0 1.4318,0 l 9.80044,-26.650487 a 0.76234619,0.76234618 0 0 0 -0.54484,-1.0065988 0.76234619,0.76234618 0 0 0 -0.61548,0.1229112 c -2.23535,1.6043456 -4.77148,2.5740476 -7.36265,2.9085396 V -6.0143303 Z m 2.07239,-100.4129597 v 0.001 a 0.76234619,0.76234618 0 0 0 -0.71683,0.498 l -9.79857,26.651549 a 0.76234619,0.76234618 0 0 0 1.15753,0.881568 c 2.23542,-1.604406 4.77231,-2.574076 7.36357,-2.908541 v 18.853057 h 4.06484 v -18.856236 c 2.58118,0.330548 5.08919,1.297517 7.27711,2.907477 a 0.76234619,0.76234618 0 0 0 1.16776,-0.877325 l -9.80044,-26.652609 a 0.76234619,0.76234618 0 0 0 -0.71497,-0.498 z" />
      <path
         style="color:#000000;fill:#c7abd5;fill-opacity:1;stroke-width:1;-inkscape-stroke:none"
         d="m -27.860413,-177.79978 v 0.001 c -0.319734,-7.5e-4 -0.605962,0.1981 -0.71683,0.498 l -9.934161,22.18584 c -0.254236,0.7022 0.548166,1.31331 1.15753,0.88157 2.23542,-1.60441 4.77231,-2.57408 7.36357,-2.90854 l -1.160955,20.28584 h 5.954465 l -0.72867,-20.28902 c 2.58118,0.33054 5.08919,1.29751 7.27711,2.90747 0.608941,0.44913 1.429593,-0.16741 1.16776,-0.87732 l -9.664849,-22.1869 c -0.110633,-0.29926 -0.395917,-0.49797 -0.71497,-0.498 z"
         id="path98643" />
      <path
         style="color:#000000;fill:#c7abd5;fill-opacity:1;stroke-width:1.08688;-inkscape-stroke:none"
         d="m -32.35981,-86.607687 -1.857786,18.917466 c -2.805425,-0.359292 -3.707922,-0.231018 -6.085922,-1.98089 -0.662689,-0.486334 -1.552758,0.185062 -1.26719,0.955854 l 12.444095,28.965801 c 0.265376,0.725045 1.290815,0.725045 1.55619,0 l 11.387554,-28.873308 c 0.172662,-0.468629 -0.105405,-0.982363 -0.592174,-1.09405 -0.231821,-0.05358 -0.47549,-0.0054 -0.668951,0.133588 -2.42955,1.743733 -3.085857,1.555571 -5.90214,1.919122 l -1.580393,-18.943583 z"
         id="path90116-3" />
      <path
         id="path96936"
         style="color:#000000;fill:#c7abd5;fill-opacity:1;stroke-width:1;stroke-linecap:round;-inkscape-stroke:none"
         d="m 90.344851,-164.1599 a 1.1435193,1.1435193 0 0 0 -0.47789,0.0604 1.1435193,1.1435193 0 0 0 -0.763317,1.12527 c 0.171099,4.2163 -0.746946,8.2811 -2.540989,11.86197 -2.579181,-0.68697 -5.201733,-1.07458 -7.824723,-1.15918 -10.52841,-0.33957 -21.057562,4.11518 -28.763483,12.89718 -12.32945,14.05118 -14.768827,35.45186 -6.107487,52.548667 8.661348,17.096815 26.725127,25.727449 43.806735,20.511288 17.081613,-5.216158 28.644473,-22.621308 28.644473,-42.251695 a 3.0490824,3.0490823 0 0 0 -3.04863,-3.05052 3.0490824,3.0490823 0 0 0 -3.04863,3.05052 c 0,17.234377 -10.16482,32.094637 -24.328604,36.419787 -14.163779,4.325148 -29.072953,-2.60632 -36.585411,-17.43534 -7.512482,-14.829007 -5.292569,-33.755487 5.251188,-45.771617 7.70692,-8.78314 18.236396,-12.38919 28.342311,-10.40929 -2.47772,2.73123 -5.604225,4.89593 -9.212833,6.23137 a 1.1435193,1.1435193 0 0 0 0.136673,2.18591 l 41.475866,9.69302 a 1.1435193,1.1435193 0 0 0 1.17984,-1.79281 l -25.314125,-34.25401 a 1.1435193,1.1435193 0 0 0 -0.820964,-0.46092 z" />
      <g
         id="g96875"
         transform="translate(13.380643,10.679299)">
        <g
           id="path96877" />
      </g>
    </g>
  </g>
</svg>
