<?xml version="1.0" encoding="UTF-8" standalone="no"?>
<!-- Created with Inkscape (http://www.inkscape.org/) -->

<svg
   width="71.179031mm"
   height="72.116585mm"
   viewBox="0 0 71.17903 72.116585"
   version="1.1"
   id="svg939"
   inkscape:version="1.1.2 (0a00cf5339, 2022-02-04)"
   sodipodi:docname="rotating.svg"
   xmlns:inkscape="http://www.inkscape.org/namespaces/inkscape"
   xmlns:sodipodi="http://sodipodi.sourceforge.net/DTD/sodipodi-0.dtd"
   xmlns="http://www.w3.org/2000/svg"
   xmlns:svg="http://www.w3.org/2000/svg">
  <sodipodi:namedview
     id="namedview941"
     pagecolor="#505050"
     bordercolor="#eeeeee"
     borderopacity="1"
     inkscape:pageshadow="0"
     inkscape:pageopacity="0"
     inkscape:pagecheckerboard="0"
     inkscape:document-units="mm"
     showgrid="false"
     inkscape:object-nodes="false"
     inkscape:zoom="1.0998546"
     inkscape:cx="162.74879"
     inkscape:cy="-113.19678"
     inkscape:window-width="2490"
     inkscape:window-height="1376"
     inkscape:window-x="70"
     inkscape:window-y="27"
     inkscape:window-maximized="1"
     inkscape:current-layer="layer1"
     fit-margin-top="0"
     fit-margin-left="0"
     fit-margin-right="0"
     fit-margin-bottom="0" />
  <defs
     id="defs936" />
  <g
     inkscape:label="Layer 1"
     inkscape:groupmode="layer"
     id="layer1"
     transform="translate(-113.85798,-2.9959282)">
    <g
       id="g3774"
       transform="matrix(0.40414477,0,0,0.40414477,67.849369,47.802303)">
      <path
         id="path2697"
         style="fill:#dadaf6;fill-opacity:0.84099;stroke-width:0.399965"
         d="m 243.01322,-82.488796 a 82.244299,82.244299 0 0 1 43.55754,72.575936 82.244299,82.244299 0 0 1 -3.39721,23.3686 75.164206,75.164206 0 0 0 5.07204,-27.00404 75.164206,75.164206 0 0 0 -45.23237,-68.940496 z" />
      <path
         id="path2855"
         style="fill:#dadaf6;fill-opacity:0.84099;stroke-width:0.399965"
         d="m 267.28347,-54.503657 a 82.244299,82.244299 0 0 1 1.43398,84.631377 82.244299,82.244299 0 0 1 -14.62637,18.5392 75.164206,75.164206 0 0 0 17.89453,-20.85016 75.164206,75.164206 0 0 0 -4.70214,-82.320417 z" />
      <path
         id="path2857"
         style="fill:#dadaf6;fill-opacity:0.84099;stroke-width:0.399965"
         d="m 274.11514,-15.17683 a 82.244299,82.244299 0 0 1 -41.07383,74.00992 82.244299,82.244299 0 0 1 -21.93641,8.74223 75.164206,75.164206 0 0 0 25.92221,-9.1095 75.164206,75.164206 0 0 0 37.08803,-73.64265 z" />
      <path
         id="path2859"
         style="fill:#dadaf6;fill-opacity:0.84099;stroke-width:0.399965"
         d="m 262.01443,19.8344 a 82.244299,82.244299 0 0 1 -72.57594,43.55756 82.244299,82.244299 0 0 1 -23.3686,-3.39721 75.164206,75.164206 0 0 0 27.00404,5.07204 75.164206,75.164206 0 0 0 68.9405,-45.23239 z" />
      <path
         id="path2861"
         style="fill:#dadaf6;fill-opacity:0.84099;stroke-width:0.399965"
         d="m 232.96504,44.42838 a 82.244299,82.244299 0 0 1 -84.63139,1.43396 82.244299,82.244299 0 0 1 -18.53918,-14.62637 75.164206,75.164206 0 0 0 20.85016,17.89454 75.164206,75.164206 0 0 0 82.32041,-4.70213 z" />
      <path
         id="path2863"
         style="fill:#dadaf6;fill-opacity:0.84099;stroke-width:0.399965"
         d="m 196.59406,51.45446 a 82.244299,82.244299 0 0 1 -74.00991,-41.07383 82.244299,82.244299 0 0 1 -8.74224,-21.9364 75.164206,75.164206 0 0 0 9.10953,25.92219 75.164206,75.164206 0 0 0 73.64262,37.08804 z" />
      <path
         id="path2865"
         style="fill:#dadaf6;fill-opacity:0.84099;stroke-width:0.399965"
         d="m 159.07633,36.48026 a 82.244299,82.244299 0 0 1 -43.55754,-72.57594 82.244299,82.244299 0 0 1 3.39721,-23.368608 75.164206,75.164206 0 0 0 -5.07205,27.004048 75.164206,75.164206 0 0 0 45.23238,68.9405 z" />
      <path
         id="path2867"
         style="fill:#dadaf6;fill-opacity:0.84099;stroke-width:0.399965"
         d="m 134.84994,9.72231 a 82.244299,82.244299 0 0 1 -1.43399,-84.631384 82.244299,82.244299 0 0 1 14.62638,-18.53919 75.164206,75.164206 0 0 0 -17.89453,20.850154 75.164206,75.164206 0 0 0 4.70214,82.32042 z" />
      <path
         id="path2869"
         style="fill:#dadaf6;fill-opacity:0.84099;stroke-width:0.399965"
         d="m 128.06605,-28.115 a 82.244299,82.244299 0 0 1 41.07383,-74.0099 82.244299,82.244299 0 0 1 21.9364,-8.74224 75.164206,75.164206 0 0 0 -25.92221,9.1095 75.164206,75.164206 0 0 0 -37.08802,73.64264 z" />
      <path
         id="path2871"
         style="fill:#dadaf6;fill-opacity:0.84099;stroke-width:0.399965"
         d="m 140.16676,-63.126219 a 82.244299,82.244299 0 0 1 72.57593,-43.557561 82.244299,82.244299 0 0 1 23.36861,3.39722 75.164206,75.164206 0 0 0 -27.00403,-5.07204 75.164206,75.164206 0 0 0 -68.94051,45.232381 z" />
      <path
         id="path2966"
         style="fill:#dadaf6;fill-opacity:0.84099;stroke-width:0.399965"
         d="m 170.8414,-88.328384 a 82.244299,82.244299 0 0 1 84.63138,-1.433966 82.244299,82.244299 0 0 1 18.5392,14.62636 75.164206,75.164206 0 0 0 -20.85016,-17.894542 75.164206,75.164206 0 0 0 -82.32042,4.702148 z" />
      <path
         id="path2968"
         style="fill:#dadaf6;fill-opacity:0.84099;stroke-width:0.399965"
         d="m 207.21237,-95.354466 a 82.244299,82.244299 0 0 1 74.00992,41.073816 82.244299,82.244299 0 0 1 8.74222,21.93642 75.164206,75.164206 0 0 0 -9.1095,-25.922196 75.164206,75.164206 0 0 0 -73.64264,-37.08804 z" />
    </g>
  </g>
</svg>
